<svg width="242" height="85" viewBox="0 0 242 85" fill="none" xmlns="http://www.w3.org/2000/svg">
<path d="M12.5671 16.1904H9.37807C7.6865 16.1904 6.06421 16.8624 4.86809 18.0585C3.67197 19.2546 3 20.8769 3 22.5685V33.7301C3 38.3819 4.84793 42.8432 8.13725 46.1325C11.4266 49.4219 15.8879 51.2698 20.5397 51.2698C25.1915 51.2698 29.6528 49.4219 32.9421 46.1325C36.2314 42.8432 38.0794 38.3819 38.0794 33.7301V22.5685C38.0794 20.8769 37.4074 19.2546 36.2113 18.0585C35.0152 16.8624 33.3929 16.1904 31.7013 16.1904H28.5123" stroke="#2CD889" stroke-width="5.39683" stroke-linecap="round" stroke-linejoin="round"/>
<path d="M20.5396 52.6191C20.5396 56.1627 21.1852 59.6717 22.4395 62.9455C23.6939 66.2194 25.5325 69.1941 27.8503 71.6998C30.168 74.2055 32.9196 76.1931 35.948 77.5492C38.9763 78.9053 42.222 79.6033 45.4999 79.6033C48.7777 79.6033 52.0234 78.9053 55.0518 77.5492C58.0801 76.1931 60.8317 74.2055 63.1495 71.6998C65.4673 69.1941 67.3058 66.2194 68.5602 62.9455C69.8146 59.6717 70.4602 56.1627 70.4602 52.6191" stroke="#2CD889" stroke-width="5.39683" stroke-linecap="round" stroke-linejoin="round"/>
<path d="M27.2856 13.4922V18.889" stroke="#2CD889" stroke-width="5.39683" stroke-linecap="round" stroke-linejoin="round"/>
<path d="M13.7935 13.4922V18.889" stroke="#2CD889" stroke-width="5.39683" stroke-linecap="round" stroke-linejoin="round"/>
<path d="M70.4602 51.27C80.8922 51.27 89.3491 42.8131 89.3491 32.3811C89.3491 21.949 80.8922 13.4922 70.4602 13.4922C60.0281 13.4922 51.5713 21.949 51.5713 32.3811C51.5713 42.8131 60.0281 51.27 70.4602 51.27Z" stroke="#2CD889" stroke-width="5.39683" stroke-linecap="round" stroke-linejoin="round"/>
<path d="M70.4604 39.1273C74.1861 39.1273 77.2064 36.107 77.2064 32.3813C77.2064 28.6556 74.1861 25.6353 70.4604 25.6353C66.7347 25.6353 63.7144 28.6556 63.7144 32.3813C63.7144 36.107 66.7347 39.1273 70.4604 39.1273Z" fill="#4E4E4E"/>
<path d="M20.5395 35.0794C24.2652 35.0794 27.2855 33.8713 27.2855 32.381C27.2855 30.8907 24.2652 29.6826 20.5395 29.6826C16.8138 29.6826 13.7935 30.8907 13.7935 32.381C13.7935 33.8713 16.8138 35.0794 20.5395 35.0794Z" fill="#4E4E4E"/>
<path d="M126.25 13.7778C131.017 13.7778 135.02 15.3294 138.258 18.4325C141.496 21.5357 143.115 25.4934 143.115 30.3056C143.115 35.1177 141.496 39.0754 138.258 42.1786C135.02 45.2817 131.017 46.8333 126.25 46.8333H119.976V61H107.901V13.7778H126.25ZM126.25 35.3651C127.599 35.3651 128.724 34.8929 129.623 33.9484C130.567 33.004 131.04 31.7897 131.04 30.3056C131.04 28.8214 130.567 27.6296 129.623 26.7302C128.724 25.7857 127.599 25.3135 126.25 25.3135H119.976V35.3651H126.25ZM159.899 49.6667H178.181V61H147.824V13.7778H177.843V25.0436H159.899V31.5873H176.157V42.7183H159.899V49.6667ZM208.548 61L200.318 45.754H196.001V61H183.925V13.7778H202.814C207.626 13.7778 211.652 15.3294 214.89 18.4325C218.173 21.4907 219.814 25.3809 219.814 30.1032C219.814 32.9365 219.095 35.545 217.656 37.9286C216.216 40.2672 214.26 42.1336 211.786 43.5278L221.501 61H208.548ZM196.001 24.9087V35.5H202.679C204.163 35.545 205.378 35.0727 206.322 34.0833C207.267 33.0939 207.739 31.8122 207.739 30.2381C207.739 28.664 207.267 27.3823 206.322 26.3929C205.378 25.4034 204.163 24.9087 202.679 24.9087H196.001ZM225.759 13.7778H237.834V61H225.759V13.7778Z" fill="#4E4E4E"/>
</svg>
